<?xml version="1.0" encoding="utf-8"?>
<!-- Generator: Adobe Illustrator 16.0.0, SVG Export Plug-In . SVG Version: 6.00 Build 0)  -->
<!DOCTYPE svg PUBLIC "-//W3C//DTD SVG 1.1//EN" "http://www.w3.org/Graphics/SVG/1.1/DTD/svg11.dtd">
<svg version="1.1" id="Layer_1" xmlns="http://www.w3.org/2000/svg" xmlns:xlink="http://www.w3.org/1999/xlink" x="0px" y="0px"
	 width="612px" height="792px" viewBox="0 0 612 792" enable-background="new 0 0 612 792" xml:space="preserve">
<g id="imgOutline_2_">
	<rect x="-454" y="-144" fill="none" stroke="#000000" stroke-miterlimit="10" width="1520" height="1080"/>
</g>
<g id="embryo_2_">
	<g id="embOutline_2_">
		<polygon fill="none" stroke="#000000" stroke-miterlimit="10" points="-396.477,443.729 -396.477,363.728 -294,262 -146,206.134 
			74,217.154 272.03,206.134 495.349,224.695 704,254 808.576,346.123 825.063,410.625 810.934,473.151 723.017,558.011 
			548.76,630.958 252,674 -48.447,634.689 -222.03,560 -316,502 		"/>
	</g>
	<g id="epi_2_">
		<polygon fill="none" stroke="#000000" stroke-miterlimit="10" points="291.041,257.39 390.931,253.595 665.364,288.857 782,382 
			766,459.696 697.901,529.354 568,594 343.884,622.864 64.639,620.718 -100.652,576.119 -335.572,467.549 -369.637,424.768 
			-352.974,365.96 -238,274 -23.175,226.809 		"/>
	</g>
	<g id="nerveMeso_2_">
		<polyline fill="none" stroke="#000000" stroke-miterlimit="10" points="197.885,301.943 431.017,331.718 632,344 736,373.254 
			717.604,438.642 673.646,495.216 553.469,523.771 415.65,549.147 214.293,564 -45.546,541.834 		"/>
	</g>
	<g id="gut_2_">
		<polygon fill="none" stroke="#000000" stroke-miterlimit="10" points="2.458,217.154 18.258,324.694 32,443.729 96,491.724 
			206.318,527.549 340.467,529.354 414.333,485.259 409.291,387.089 338.392,348.979 221.276,333.265 192.424,217.154 		"/>
	</g>
	<g id="gutSplit_2_">
		<polyline fill="none" stroke="#000000" stroke-miterlimit="10" points="48.576,217.154 42.742,345.725 78,424.837 
			167.537,447.843 259.111,447.843 292.332,441.835 		"/>
	</g>
	<g id="germCell_2_">
		<polygon fill="none" stroke="#000000" stroke-miterlimit="10" points="251.107,394.696 347.662,424.469 339.453,504.126 
			196.653,490.684 		"/>
	</g>
	<g id="mouth_2_">
		<polygon fill="none" stroke="#000000" stroke-miterlimit="10" points="-266,527.549 -369.637,437.613 -270,394.696 -108,415.982 
			-48.447,634.689 		"/>
	</g>
	<g id="furrow_2_">
		<polyline fill="none" stroke="#000000" stroke-miterlimit="10" points="18.258,226.809 -6.393,395.736 -81.618,605.155 		"/>
	</g>
</g>
</svg>
