<?xml version="1.0" encoding="utf-8"?>
<!-- Generator: Adobe Illustrator 16.0.0, SVG Export Plug-In . SVG Version: 6.00 Build 0)  -->
<!DOCTYPE svg PUBLIC "-//W3C//DTD SVG 1.1//EN" "http://www.w3.org/Graphics/SVG/1.1/DTD/svg11.dtd">
<svg version="1.1" id="Layer_1" xmlns="http://www.w3.org/2000/svg" xmlns:xlink="http://www.w3.org/1999/xlink" x="0px" y="0px"
	 width="612px" height="792px" viewBox="0 0 612 792" enable-background="new 0 0 612 792" xml:space="preserve">
<g id="imgOutline_2_">
	<rect x="-455" y="-144" fill="none" stroke="#000000" stroke-miterlimit="10" width="1520" height="1080"/>
</g>
<g id="embryo_2_">
	<g id="embOutline_2_">
		<polygon fill="none" stroke="#000000" stroke-miterlimit="10" points="-397.292,422.234 -357.876,324.416 -282.88,281.096 
			-90.573,244.94 110.1,234.683 293.091,215.1 548.078,215.1 779.066,273.597 879.597,365.793 897.051,426.204 882.094,484.765 
			782.066,570.582 612,627.394 312.068,656.268 -21.705,629.062 -227.383,548.083 -323.378,492.586 		"/>
	</g>
	<g id="epi_2_">
		<polygon fill="none" stroke="#000000" stroke-miterlimit="10" points="251.419,285.596 473.082,270.597 717.569,308.095 
			833.064,391.383 816.659,469.589 762.438,519.323 621.18,575.396 359.088,606.58 87.716,592.129 -78.891,569.082 -315.879,457.21 
			-360.007,415.617 -336.877,360.225 -219.519,309.072 -0.88,254.046 		"/>
	</g>
	<g id="nerveMeso_2_">
		<polyline fill="none" stroke="#000000" stroke-miterlimit="10" points="224.51,308.095 473.082,323.094 707.07,366.592 
			762.438,396 755.791,431.779 709.259,484.765 609.545,532.174 463.3,555.876 272.092,577.188 -24.563,549.092 		"/>
	</g>
	<g id="gut_2_">
		<polygon fill="none" stroke="#000000" stroke-miterlimit="10" points="29.756,234.683 65.103,351.213 70.611,452.76 
			149.098,509.085 224.51,545.083 357.588,545.083 443.083,548.083 473.082,402.59 414.585,351.213 242.094,327.594 
			230.851,234.683 		"/>
	</g>
	<g id="gutSplit_2_">
		<polyline fill="none" stroke="#000000" stroke-miterlimit="10" points="96.744,241.363 104.101,362.092 156.598,457.21 
			214.927,479.086 299.091,479.086 333.109,468.587 		"/>
	</g>
	<g id="germCell_2_">
		<polygon fill="none" stroke="#000000" stroke-miterlimit="10" points="318.717,412.26 377.627,426.32 368.938,500.926 
			261.072,502.16 		"/>
	</g>
	<g id="mouth_2_">
		<polygon fill="none" stroke="#000000" stroke-miterlimit="10" points="-264.099,526.857 -366.876,430.313 -245.382,391.383 
			-118.03,383.074 -21.705,629.062 		"/>
	</g>
	<g id="furrow_2_">
		<polyline fill="none" stroke="#000000" stroke-miterlimit="10" points="42.98,254.046 16.884,412.26 -62.494,606.58 		"/>
	</g>
</g>
</svg>
