<?xml version="1.0" encoding="utf-8"?>
<!-- Generator: Adobe Illustrator 16.0.0, SVG Export Plug-In . SVG Version: 6.00 Build 0)  -->
<!DOCTYPE svg PUBLIC "-//W3C//DTD SVG 1.1//EN" "http://www.w3.org/Graphics/SVG/1.1/DTD/svg11.dtd">
<svg version="1.1" id="Layer_1" xmlns="http://www.w3.org/2000/svg" xmlns:xlink="http://www.w3.org/1999/xlink" x="0px" y="0px"
	 width="612px" height="792px" viewBox="0 0 612 792" enable-background="new 0 0 612 792" xml:space="preserve">
<g id="imgOutline_2_">
	<rect x="-455" y="-145" fill="none" stroke="#000000" stroke-miterlimit="10" width="1520" height="1080"/>
</g>
<g id="embryo_2_">
	<g id="embOutline_2_">
		<polygon fill="none" stroke="#000000" stroke-miterlimit="10" points="-221.925,447.854 -208.508,372.836 -113.413,288.167 
			74.001,210.091 230,198.807 443.205,198.807 646,234 864.551,265.032 964.603,343.045 980.625,409.505 966.895,473.93 
			881.461,561.366 690,622 320.784,644.638 84,610 -51.416,571.193 -150.057,512.278 		"/>
	</g>
	<g id="epi_2_">
		<polygon fill="none" stroke="#000000" stroke-miterlimit="10" points="461.681,251.619 588.549,265.032 820,318 920,364.393 
			906.826,457.234 857.053,511.949 727.378,573.637 484,599.159 233.586,612.941 81.047,580.025 -147.239,468.159 -159.855,416.394 
			-146,364.393 -58.499,312.239 142.208,251.704 		"/>
	</g>
	<g id="nerveMeso_2_">
		<polyline fill="none" stroke="#000000" stroke-miterlimit="10" points="371.155,297.525 597.704,328.204 803.656,363.486 
			866,394.165 852,447.854 794,496.662 716.699,526.086 582.448,552.163 305,577.709 134.596,550 		"/>
	</g>
	<g id="gut_2_">
		<polygon fill="none" stroke="#000000" stroke-miterlimit="10" points="230,198.807 196.6,320.966 210,443.616 240.285,493.068 
			379.35,529.979 495.825,520.236 560.168,479.934 557.35,397.859 488,327.004 380.072,298.732 375.565,198.807 		"/>
	</g>
	<g id="gutSplit_2_">
		<polyline fill="none" stroke="#000000" stroke-miterlimit="10" points="245.955,206.155 220,332.078 250,437.617 330,458 
			430.653,447.854 462.936,409.635 		"/>
	</g>
	<g id="germCell_2_">
		<polygon fill="none" stroke="#000000" stroke-miterlimit="10" points="450.303,372 503.802,384 495.825,491.709 396.805,493.068 
					"/>
	</g>
	<g id="mouth_2_">
		<polygon fill="none" stroke="#000000" stroke-miterlimit="10" points="-83.826,544.699 -221.925,447.854 -116,394.165 12,424.078 
			84,599.159 		"/>
	</g>
	<g id="furrow_2_">
		<polyline fill="none" stroke="#000000" stroke-miterlimit="10" points="196.6,220.109 163.594,415.094 84,599.159 		"/>
	</g>
</g>
</svg>
