<?xml version="1.0" encoding="utf-8"?>
<!-- Generator: Adobe Illustrator 16.0.0, SVG Export Plug-In . SVG Version: 6.00 Build 0)  -->
<!DOCTYPE svg PUBLIC "-//W3C//DTD SVG 1.1//EN" "http://www.w3.org/Graphics/SVG/1.1/DTD/svg11.dtd">
<svg version="1.1" id="Layer_1" xmlns="http://www.w3.org/2000/svg" xmlns:xlink="http://www.w3.org/1999/xlink" x="0px" y="0px"
	 width="612px" height="792px" viewBox="0 0 612 792" enable-background="new 0 0 612 792" xml:space="preserve">
<g id="imgOutline_2_">
	<rect x="-455" y="-144" fill="none" stroke="#000000" stroke-miterlimit="10" width="1520" height="1080"/>
</g>
<g id="embryo_2_">
	<g id="embOutline_2_">
		<polygon fill="none" stroke="#000000" stroke-miterlimit="10" points="-301.984,440.43 -303.256,356.431 -204,258 -66,230 
			161.36,221.499 366,212.671 598.129,210.452 810.65,258.449 914.714,337.947 931.378,405.672 910,506 846,574.934 
			652.112,637.014 372.846,663.588 51.436,624.351 -140,551.041 -228.715,507.041 		"/>
	</g>
	<g id="epi_2_">
		<polygon fill="none" stroke="#000000" stroke-miterlimit="10" points="385.553,245.105 494.067,272 768.146,298.948 
			854.621,368.253 868,466 802.853,528.438 667.979,572.926 422.857,599.455 160.65,592.205 0,562 -196,470 -254,421.301 
			-234,359.7 -136,304 60,280 		"/>
	</g>
	<g id="nerveMeso_2_">
		<polyline fill="none" stroke="#000000" stroke-miterlimit="10" points="297.477,291.56 533.107,322.822 746,337.375 
			802.853,386.914 802.853,444.75 752.076,471.322 656.872,524.471 512,528 340.84,537.834 53.569,530.334 		"/>
	</g>
	<g id="gut_2_">
		<polygon fill="none" stroke="#000000" stroke-miterlimit="10" points="102.154,220.311 115.924,315.447 182,466 246.437,483.609 
			314.061,495.962 427.144,518.51 522,495.962 510,359.7 392.936,328 240,350 263.956,218.901 		"/>
	</g>
	<g id="gutSplit_2_">
		<polyline fill="none" stroke="#000000" stroke-miterlimit="10" points="212,230 172,337.375 200.934,405.803 281.545,444.75 
			359.359,444.75 392.936,438.441 		"/>
	</g>
	<g id="germCell_2_">
		<polygon fill="none" stroke="#000000" stroke-miterlimit="10" points="379.193,390.039 466.728,394.185 458.431,477.821 354,476 
					"/>
	</g>
	<g id="mouth_2_">
		<polygon fill="none" stroke="#000000" stroke-miterlimit="10" points="-175.743,543.436 -288.252,437.02 -133.001,390.039 
			-20,359.7 115.924,632.224 		"/>
	</g>
	<g id="furrow_2_">
		<polyline fill="none" stroke="#000000" stroke-miterlimit="10" points="118.625,242.448 93.709,419.815 22.25,603.708 		"/>
	</g>
</g>
</svg>
