<?xml version="1.0" encoding="utf-8"?>
<!-- Generator: Adobe Illustrator 16.0.0, SVG Export Plug-In . SVG Version: 6.00 Build 0)  -->
<!DOCTYPE svg PUBLIC "-//W3C//DTD SVG 1.1//EN" "http://www.w3.org/Graphics/SVG/1.1/DTD/svg11.dtd">
<svg version="1.1" id="Layer_1" xmlns="http://www.w3.org/2000/svg" xmlns:xlink="http://www.w3.org/1999/xlink" x="0px" y="0px"
	 width="612px" height="792px" viewBox="0 0 612 792" enable-background="new 0 0 612 792" xml:space="preserve">
<g id="imgOutline_2_">
	<rect x="-454" y="-144" fill="none" stroke="#000000" stroke-miterlimit="10" width="1520" height="1080"/>
</g>
<g id="embryo_2_">
	<g id="embOutline_2_">
		<polygon fill="none" stroke="#000000" stroke-miterlimit="10" points="-370,436 -370,352.601 -294,306 -126,275.781 112,275.781 
			322.588,243.672 544,258 763.512,289.45 898,364 922,457.318 876,543.51 781.51,591.422 594,648.016 319.844,706.334 
			-12.08,683.678 -191.701,558.454 -283.327,498 		"/>
	</g>
	<g id="epi_2_">
		<polygon fill="none" stroke="#000000" stroke-miterlimit="10" points="336.509,291.471 479.603,306.443 715.725,333.36 
			869.725,390.614 866,489.309 754,562 617.506,603.926 364.795,664.725 96.459,657.475 -70.447,610.434 -278,458.164 
			-332.77,399.585 -315.534,337.839 -204,322.56 -30,322.56 		"/>
	</g>
	<g id="nerveMeso_2_">
		<polyline fill="none" stroke="#000000" stroke-miterlimit="10" points="265.646,324.251 471.939,337.029 706.907,365.532 
			819.35,416.066 812.065,467.501 742,521.822 631.644,561.293 455.811,600.854 273.044,619.737 -13.509,593.424 		"/>
	</g>
	<g id="gut_2_">
		<polygon fill="none" stroke="#000000" stroke-miterlimit="10" points="90.974,279.386 96.973,350.053 120,436 168,543.51 
			247.065,559.438 379.531,574 516,521.822 472,396 379.531,340.865 262.537,355.447 243.038,275.781 		"/>
	</g>
	<g id="gutSplit_2_">
		<polyline fill="none" stroke="#000000" stroke-miterlimit="10" points="131.215,301.881 140,370 155.007,444.104 220,498 
			301.672,475.75 336.033,469.441 		"/>
	</g>
	<g id="germCell_2_">
		<polygon fill="none" stroke="#000000" stroke-miterlimit="10" points="321.97,421.039 379.531,436.803 371.041,520.439 
			265.646,521.822 		"/>
	</g>
	<g id="mouth_2_">
		<polygon fill="none" stroke="#000000" stroke-miterlimit="10" points="-239.472,531.138 -321.162,469.411 -244,358 -64,434 
			46.548,660.164 		"/>
	</g>
	<g id="furrow_2_">
		<polyline fill="none" stroke="#000000" stroke-miterlimit="10" points="38.688,301.881 4.606,445.031 -65.76,629.926 		"/>
	</g>
</g>
</svg>
